<mxfile host="app.diagrams.net" agent="Mozilla/5.0 (Windows NT 10.0; Win64; x64) AppleWebKit/537.36 (KHTML, like Gecko) Chrome/128.0.0.0 YaBrowser/24.10.0.0 Safari/537.36" version="24.8.6">
  <diagram name="Страница — 1" id="FZuVYSKQKKseB5JXQPXO">
    <mxGraphModel dx="1386" dy="783" grid="1" gridSize="10" guides="1" tooltips="1" connect="1" arrows="1" fold="1" page="1" pageScale="1" pageWidth="827" pageHeight="1169" math="0" shadow="0">
      <root>
        <mxCell id="0" />
        <mxCell id="1" parent="0" />
        <mxCell id="h4m05iVEqOgtliCkyHRx-1" value="" style="edgeStyle=orthogonalEdgeStyle;rounded=0;orthogonalLoop=1;jettySize=auto;html=1;" edge="1" parent="1" source="h4m05iVEqOgtliCkyHRx-2" target="h4m05iVEqOgtliCkyHRx-5">
          <mxGeometry relative="1" as="geometry" />
        </mxCell>
        <mxCell id="h4m05iVEqOgtliCkyHRx-2" value="Начало" style="strokeWidth=2;html=1;shape=mxgraph.flowchart.terminator;whiteSpace=wrap;" vertex="1" parent="1">
          <mxGeometry x="360" y="40" width="130" height="40" as="geometry" />
        </mxCell>
        <mxCell id="h4m05iVEqOgtliCkyHRx-3" value="Конец" style="strokeWidth=2;html=1;shape=mxgraph.flowchart.terminator;whiteSpace=wrap;" vertex="1" parent="1">
          <mxGeometry x="355" y="920" width="130" height="40" as="geometry" />
        </mxCell>
        <mxCell id="h4m05iVEqOgtliCkyHRx-4" value="" style="edgeStyle=orthogonalEdgeStyle;rounded=0;orthogonalLoop=1;jettySize=auto;html=1;" edge="1" parent="1" source="h4m05iVEqOgtliCkyHRx-5" target="h4m05iVEqOgtliCkyHRx-7">
          <mxGeometry relative="1" as="geometry" />
        </mxCell>
        <mxCell id="h4m05iVEqOgtliCkyHRx-5" value="Ввод: CAPEC, CWE, URL базы СЗИ" style="shape=parallelogram;perimeter=parallelogramPerimeter;whiteSpace=wrap;html=1;fixedSize=1;" vertex="1" parent="1">
          <mxGeometry x="340" y="120" width="170" height="60" as="geometry" />
        </mxCell>
        <mxCell id="h4m05iVEqOgtliCkyHRx-6" value="" style="edgeStyle=orthogonalEdgeStyle;rounded=0;orthogonalLoop=1;jettySize=auto;html=1;" edge="1" parent="1" source="h4m05iVEqOgtliCkyHRx-7" target="h4m05iVEqOgtliCkyHRx-10">
          <mxGeometry relative="1" as="geometry" />
        </mxCell>
        <mxCell id="h4m05iVEqOgtliCkyHRx-7" value="Установка соединения с сайтом https://reestr.&lt;span style=&quot;background-color: initial;&quot;&gt;fstec.ru/&lt;/span&gt;&lt;span style=&quot;background-color: initial;&quot;&gt;reg3&lt;/span&gt;&amp;nbsp;через WEB драйвер" style="rounded=0;whiteSpace=wrap;html=1;" vertex="1" parent="1">
          <mxGeometry x="297.5" y="220" width="255" height="60" as="geometry" />
        </mxCell>
        <mxCell id="h4m05iVEqOgtliCkyHRx-8" style="edgeStyle=orthogonalEdgeStyle;rounded=0;orthogonalLoop=1;jettySize=auto;html=1;exitX=0;exitY=0.5;exitDx=0;exitDy=0;entryX=0.5;entryY=0;entryDx=0;entryDy=0;" edge="1" parent="1" source="h4m05iVEqOgtliCkyHRx-10" target="h4m05iVEqOgtliCkyHRx-13">
          <mxGeometry relative="1" as="geometry" />
        </mxCell>
        <mxCell id="h4m05iVEqOgtliCkyHRx-9" style="edgeStyle=orthogonalEdgeStyle;rounded=0;orthogonalLoop=1;jettySize=auto;html=1;exitX=1;exitY=0.5;exitDx=0;exitDy=0;entryX=0.5;entryY=0;entryDx=0;entryDy=0;" edge="1" parent="1" source="h4m05iVEqOgtliCkyHRx-10" target="h4m05iVEqOgtliCkyHRx-17">
          <mxGeometry relative="1" as="geometry" />
        </mxCell>
        <mxCell id="h4m05iVEqOgtliCkyHRx-10" value="Успешное соединение?" style="rhombus;whiteSpace=wrap;html=1;" vertex="1" parent="1">
          <mxGeometry x="339" y="320" width="172.5" height="80" as="geometry" />
        </mxCell>
        <mxCell id="h4m05iVEqOgtliCkyHRx-11" style="edgeStyle=orthogonalEdgeStyle;rounded=0;orthogonalLoop=1;jettySize=auto;html=1;exitX=1;exitY=0.5;exitDx=0;exitDy=0;entryX=0.5;entryY=0;entryDx=0;entryDy=0;" edge="1" parent="1" source="h4m05iVEqOgtliCkyHRx-13" target="h4m05iVEqOgtliCkyHRx-14">
          <mxGeometry relative="1" as="geometry" />
        </mxCell>
        <mxCell id="h4m05iVEqOgtliCkyHRx-12" style="edgeStyle=orthogonalEdgeStyle;rounded=0;orthogonalLoop=1;jettySize=auto;html=1;exitX=0;exitY=0.5;exitDx=0;exitDy=0;entryX=0;entryY=0.5;entryDx=0;entryDy=0;" edge="1" parent="1" source="h4m05iVEqOgtliCkyHRx-13" target="h4m05iVEqOgtliCkyHRx-7">
          <mxGeometry relative="1" as="geometry" />
        </mxCell>
        <mxCell id="h4m05iVEqOgtliCkyHRx-13" value="Попыток соединения &amp;gt;3?" style="rhombus;whiteSpace=wrap;html=1;" vertex="1" parent="1">
          <mxGeometry x="192.5" y="400" width="172.5" height="80" as="geometry" />
        </mxCell>
        <mxCell id="h4m05iVEqOgtliCkyHRx-14" value="Сообщение об ошибке" style="rounded=0;whiteSpace=wrap;html=1;" vertex="1" parent="1">
          <mxGeometry x="220" y="560" width="120" height="60" as="geometry" />
        </mxCell>
        <mxCell id="h4m05iVEqOgtliCkyHRx-15" style="edgeStyle=orthogonalEdgeStyle;rounded=0;orthogonalLoop=1;jettySize=auto;html=1;exitX=0.5;exitY=1;exitDx=0;exitDy=0;entryX=0;entryY=0.5;entryDx=0;entryDy=0;entryPerimeter=0;" edge="1" parent="1" source="h4m05iVEqOgtliCkyHRx-14" target="h4m05iVEqOgtliCkyHRx-3">
          <mxGeometry relative="1" as="geometry" />
        </mxCell>
        <mxCell id="h4m05iVEqOgtliCkyHRx-16" value="" style="edgeStyle=orthogonalEdgeStyle;rounded=0;orthogonalLoop=1;jettySize=auto;html=1;" edge="1" parent="1" source="h4m05iVEqOgtliCkyHRx-17" target="h4m05iVEqOgtliCkyHRx-20">
          <mxGeometry relative="1" as="geometry" />
        </mxCell>
        <mxCell id="h4m05iVEqOgtliCkyHRx-17" value="ПО обрабатывает через нейросеть записи с наибольшими совпадениями" style="rounded=0;whiteSpace=wrap;html=1;" vertex="1" parent="1">
          <mxGeometry x="485" y="400" width="200" height="60" as="geometry" />
        </mxCell>
        <mxCell id="h4m05iVEqOgtliCkyHRx-18" style="edgeStyle=orthogonalEdgeStyle;rounded=0;orthogonalLoop=1;jettySize=auto;html=1;exitX=0;exitY=0.5;exitDx=0;exitDy=0;entryX=1;entryY=0.5;entryDx=0;entryDy=0;" edge="1" parent="1" source="h4m05iVEqOgtliCkyHRx-20" target="h4m05iVEqOgtliCkyHRx-14">
          <mxGeometry relative="1" as="geometry" />
        </mxCell>
        <mxCell id="h4m05iVEqOgtliCkyHRx-19" style="edgeStyle=orthogonalEdgeStyle;rounded=0;orthogonalLoop=1;jettySize=auto;html=1;exitX=1;exitY=0.5;exitDx=0;exitDy=0;entryX=0.5;entryY=0;entryDx=0;entryDy=0;" edge="1" parent="1" source="h4m05iVEqOgtliCkyHRx-20" target="h4m05iVEqOgtliCkyHRx-22">
          <mxGeometry relative="1" as="geometry" />
        </mxCell>
        <mxCell id="h4m05iVEqOgtliCkyHRx-20" value="Высокая точность результата?" style="rhombus;whiteSpace=wrap;html=1;" vertex="1" parent="1">
          <mxGeometry x="481.25" y="505" width="207.5" height="80" as="geometry" />
        </mxCell>
        <mxCell id="h4m05iVEqOgtliCkyHRx-21" value="" style="edgeStyle=orthogonalEdgeStyle;rounded=0;orthogonalLoop=1;jettySize=auto;html=1;" edge="1" parent="1" source="h4m05iVEqOgtliCkyHRx-22" target="h4m05iVEqOgtliCkyHRx-24">
          <mxGeometry relative="1" as="geometry" />
        </mxCell>
        <mxCell id="h4m05iVEqOgtliCkyHRx-22" value="Парсинг полученных данных" style="rounded=0;whiteSpace=wrap;html=1;" vertex="1" parent="1">
          <mxGeometry x="516.25" y="630" width="137.5" height="50" as="geometry" />
        </mxCell>
        <mxCell id="h4m05iVEqOgtliCkyHRx-23" style="edgeStyle=orthogonalEdgeStyle;rounded=0;orthogonalLoop=1;jettySize=auto;html=1;exitX=0.5;exitY=1;exitDx=0;exitDy=0;entryX=0.5;entryY=0;entryDx=0;entryDy=0;" edge="1" parent="1" source="h4m05iVEqOgtliCkyHRx-24" target="h4m05iVEqOgtliCkyHRx-26">
          <mxGeometry relative="1" as="geometry" />
        </mxCell>
        <mxCell id="h4m05iVEqOgtliCkyHRx-24" value="Создание файла csv таблицы &quot;Описание функций выбранных СЗИ&quot;" style="rounded=0;whiteSpace=wrap;html=1;" vertex="1" parent="1">
          <mxGeometry x="488.13" y="720" width="193.75" height="50" as="geometry" />
        </mxCell>
        <mxCell id="h4m05iVEqOgtliCkyHRx-25" value="" style="edgeStyle=orthogonalEdgeStyle;rounded=0;orthogonalLoop=1;jettySize=auto;html=1;" edge="1" parent="1" source="h4m05iVEqOgtliCkyHRx-26" target="h4m05iVEqOgtliCkyHRx-3">
          <mxGeometry relative="1" as="geometry" />
        </mxCell>
        <mxCell id="h4m05iVEqOgtliCkyHRx-26" value="Вывод: файл CSV" style="shape=parallelogram;perimeter=parallelogramPerimeter;whiteSpace=wrap;html=1;fixedSize=1;" vertex="1" parent="1">
          <mxGeometry x="335" y="820" width="170" height="60" as="geometry" />
        </mxCell>
        <mxCell id="h4m05iVEqOgtliCkyHRx-27" value="Да" style="text;html=1;align=center;verticalAlign=middle;whiteSpace=wrap;rounded=0;" vertex="1" parent="1">
          <mxGeometry x="497.5" y="330" width="60" height="30" as="geometry" />
        </mxCell>
        <mxCell id="h4m05iVEqOgtliCkyHRx-28" value="Нет" style="text;html=1;align=center;verticalAlign=middle;whiteSpace=wrap;rounded=0;" vertex="1" parent="1">
          <mxGeometry x="300" y="330" width="60" height="30" as="geometry" />
        </mxCell>
        <mxCell id="h4m05iVEqOgtliCkyHRx-29" value="Да" style="text;html=1;align=center;verticalAlign=middle;whiteSpace=wrap;rounded=0;" vertex="1" parent="1">
          <mxGeometry x="670" y="510" width="60" height="30" as="geometry" />
        </mxCell>
        <mxCell id="h4m05iVEqOgtliCkyHRx-30" value="Нет" style="text;html=1;align=center;verticalAlign=middle;whiteSpace=wrap;rounded=0;" vertex="1" parent="1">
          <mxGeometry x="445" y="510" width="60" height="30" as="geometry" />
        </mxCell>
      </root>
    </mxGraphModel>
  </diagram>
</mxfile>
